<mxfile host="app.diagrams.net" agent="Mozilla/5.0 (X11; Linux x86_64) AppleWebKit/537.36 (KHTML, like Gecko) Chrome/131.0.0.0 Safari/537.36" version="27.0.6">
  <diagram name="Page-1" id="EdHdbG7j1fMPCzqK27qr">
    <mxGraphModel dx="1426" dy="764" grid="1" gridSize="10" guides="1" tooltips="1" connect="1" arrows="1" fold="1" page="1" pageScale="1" pageWidth="850" pageHeight="1100" math="0" shadow="0">
      <root>
        <mxCell id="0" />
        <mxCell id="1" parent="0" />
        <mxCell id="UVKlSepk_DP5gRT3gJ2i-4" style="edgeStyle=orthogonalEdgeStyle;rounded=0;orthogonalLoop=1;jettySize=auto;html=1;entryX=0.5;entryY=0;entryDx=0;entryDy=0;" edge="1" parent="1" source="UVKlSepk_DP5gRT3gJ2i-1" target="UVKlSepk_DP5gRT3gJ2i-2">
          <mxGeometry relative="1" as="geometry" />
        </mxCell>
        <mxCell id="UVKlSepk_DP5gRT3gJ2i-6" value="get product file" style="edgeLabel;html=1;align=center;verticalAlign=middle;resizable=0;points=[];" vertex="1" connectable="0" parent="UVKlSepk_DP5gRT3gJ2i-4">
          <mxGeometry x="-0.1111" y="-2" relative="1" as="geometry">
            <mxPoint as="offset" />
          </mxGeometry>
        </mxCell>
        <mxCell id="UVKlSepk_DP5gRT3gJ2i-1" value="SFTP server" style="rounded=0;whiteSpace=wrap;html=1;" vertex="1" parent="1">
          <mxGeometry x="380" y="220" width="120" height="60" as="geometry" />
        </mxCell>
        <mxCell id="UVKlSepk_DP5gRT3gJ2i-5" style="edgeStyle=orthogonalEdgeStyle;rounded=0;orthogonalLoop=1;jettySize=auto;html=1;entryX=0.5;entryY=0;entryDx=0;entryDy=0;" edge="1" parent="1" source="UVKlSepk_DP5gRT3gJ2i-2" target="UVKlSepk_DP5gRT3gJ2i-3">
          <mxGeometry relative="1" as="geometry" />
        </mxCell>
        <mxCell id="UVKlSepk_DP5gRT3gJ2i-7" value="save the transformed file into system" style="edgeLabel;html=1;align=center;verticalAlign=middle;resizable=0;points=[];" vertex="1" connectable="0" parent="UVKlSepk_DP5gRT3gJ2i-5">
          <mxGeometry x="-0.0667" y="1" relative="1" as="geometry">
            <mxPoint as="offset" />
          </mxGeometry>
        </mxCell>
        <mxCell id="UVKlSepk_DP5gRT3gJ2i-2" value="Transform into HC ingestable JSON" style="rounded=0;whiteSpace=wrap;html=1;" vertex="1" parent="1">
          <mxGeometry x="380" y="370" width="120" height="60" as="geometry" />
        </mxCell>
        <mxCell id="UVKlSepk_DP5gRT3gJ2i-3" value="Schedule import with sorted file location" style="rounded=0;whiteSpace=wrap;html=1;" vertex="1" parent="1">
          <mxGeometry x="380" y="520" width="120" height="60" as="geometry" />
        </mxCell>
      </root>
    </mxGraphModel>
  </diagram>
</mxfile>
